<svg width="190" height="98" viewBox="0 0 190 98" fill="none" xmlns="http://www.w3.org/2000/svg">
<g clip-path="url(#clip0_17_83)">
<path d="M42.6311 93.0701L3.87901 72.3585L4.29982 29.511L43.3205 49.892L42.6311 93.0701Z" fill="#FDC514"/>
<path d="M44.8224 49.0776L13.5329 29.3001L44.7351 11.1799L75.1674 28.1108L44.8224 49.0776Z" fill="#FDC514"/>
<path d="M100.364 27.1879V30.6069H105.15V32.2155H100.364V35.7033H106.182V37.3119H98.6563V25.5771H106.029V27.1857H100.362L100.364 27.1879Z" fill="#FDC514"/>
<path d="M121.019 31.8648V37.314H119.363V32.1843C119.363 30.9108 118.703 30.172 117.673 30.172C116.541 30.172 115.558 31.0595 115.558 32.8721V37.314H113.902V32.1843C113.902 30.9108 113.259 30.172 112.212 30.172C111.095 30.172 110.114 31.0595 110.114 32.8721V37.314H108.456V28.8984H110.078V30.2896C110.602 29.3 111.397 28.6965 112.666 28.6965C114.002 28.6965 114.949 29.3333 115.339 30.4892C115.829 29.3999 116.758 28.6965 118.112 28.6965C119.871 28.6965 121.019 29.8369 121.019 31.8648Z" fill="#FDC514"/>
<path d="M132.155 33.0208C132.155 35.2661 130.734 37.3117 128.097 37.3117C126.743 37.3117 125.695 36.7593 125.104 35.8363V41.017H123.446V28.8984H125.069V30.2563C125.61 29.2845 126.691 28.6965 128.097 28.6965C130.752 28.6965 132.155 30.7755 132.155 33.0208ZM130.496 33.003C130.496 31.4943 129.583 30.1698 127.84 30.1698C126.199 30.1698 125.1 31.359 125.1 33.003C125.1 34.6471 126.199 35.8363 127.84 35.8363C129.48 35.8363 130.496 34.6471 130.496 33.003Z" fill="#FDC514"/>
<path d="M144.405 36.9257C143.897 37.2452 143.34 37.4116 142.814 37.4116C141.818 37.4116 140.972 36.8259 140.835 35.6854C140.226 36.8259 139.094 37.4116 137.639 37.4116C135.036 37.4116 133.581 35.4014 133.581 33.0873C133.581 30.7732 135 28.6965 137.639 28.6965C139.076 28.6965 140.141 29.2845 140.683 30.3051V28.8962H142.306V34.9311C142.306 35.6189 142.729 35.9206 143.219 35.9206C143.49 35.9206 143.776 35.8363 144.032 35.7032L144.403 36.9279L144.405 36.9257ZM140.649 33.0541C140.649 31.3434 139.535 30.1698 137.894 30.1698C136.153 30.1698 135.237 31.4943 135.237 33.0541C135.237 34.7469 136.321 35.9384 137.925 35.9384C139.53 35.9384 140.647 34.7647 140.647 33.0541H140.649Z" fill="#FDC514"/>
<path d="M153.95 41.017H152.291V35.8363C151.716 36.7593 150.65 37.3117 149.298 37.3117C146.659 37.3117 145.24 35.2661 145.24 33.0208C145.24 30.7755 146.659 28.6965 149.298 28.6965C150.735 28.6965 151.819 29.3 152.327 30.3228V28.8984H153.95V41.017ZM152.307 33.003C152.307 31.3612 151.192 30.1698 149.551 30.1698C147.826 30.1698 146.894 31.4943 146.894 33.003C146.894 34.6471 147.96 35.8363 149.567 35.8363C151.174 35.8363 152.307 34.6471 152.307 33.003Z" fill="#FDC514"/>
<path d="M156.219 34.2433V28.8962H157.878V33.9238C157.878 35.1973 158.657 35.9362 159.738 35.9362C160.904 35.9362 162.072 35.0487 162.072 33.2205V28.8962H163.729V37.3118H162.106V35.8208C161.564 36.7926 160.532 37.4138 159.281 37.4138C157.522 37.4138 156.219 36.2734 156.219 34.2455V34.2433Z" fill="#FDC514"/>
<path d="M173.627 33.6067H167.353C167.456 34.8315 168.418 35.9541 170.059 35.9541C171.106 35.9541 171.986 35.4682 172.494 34.7139L173.425 35.7034C172.546 36.7928 171.395 37.414 169.907 37.414C167.185 37.414 165.663 35.4372 165.663 33.1231C165.663 30.809 167.236 28.699 169.924 28.699C172.275 28.699 173.627 30.241 173.627 32.788V33.609V33.6067ZM171.97 32.351C171.97 30.9265 171.243 30.0879 169.839 30.0879C168.436 30.0879 167.505 31.0597 167.319 32.351H171.97Z" fill="#FDC514"/>
<path d="M178.755 37.4116C177.336 37.4116 175.863 36.8081 174.967 35.6854L176.017 34.5628C176.678 35.519 177.895 35.9539 178.876 35.9539C179.755 35.9539 180.431 35.6366 180.431 34.9488C180.431 34.261 179.722 34.0436 178.638 33.8262C177.219 33.54 175.408 33.1894 175.408 31.2791C175.408 29.553 176.895 28.6965 178.538 28.6965C179.67 28.6965 180.821 29.0826 181.6 29.8858L180.704 30.9751C180.145 30.3894 179.231 30.1209 178.488 30.1209C177.745 30.1209 177.051 30.456 177.051 31.177C177.051 31.9824 177.864 32.1666 179.046 32.384C180.449 32.668 182.09 32.9698 182.09 34.7469C182.09 36.5241 180.516 37.4116 178.757 37.4116H178.755Z" fill="#FDC514"/>
<path d="M111.583 57.0007H124.614V69.1658C121.816 71.7417 117.778 73.6032 112.941 73.6032C103.547 73.6032 98.8689 66.6298 98.8689 59.5367C98.8689 52.4435 103.827 44.5981 113.541 44.5981C119.137 44.5981 123.135 47.0542 125.612 51.2942L120.216 54.9794C118.777 52.4435 116.299 51.0168 113.259 51.0168C108.183 51.0168 105.705 54.9018 105.705 59.1794C105.705 64.1338 108.982 67.4219 113.501 67.4219C114.741 67.4219 116.258 67.1845 117.819 66.55V63.2619H111.583V57.0007Z" fill="white"/>
<path d="M155.232 71.7416C153.873 72.7333 152.273 73.2081 150.753 73.2081C148.313 73.2081 146.077 71.979 145.357 69.5628C144.117 71.8215 141.558 73.2081 138.241 73.2081C132.446 73.2081 128.607 68.6909 128.607 62.5495C128.607 56.4081 132.245 51.8909 138.281 51.8909C141.321 51.8909 143.479 53.0801 144.358 54.8218V52.3657H150.794V65.5603C150.794 66.7894 151.593 67.3441 152.513 67.3441C152.951 67.3441 153.43 67.2243 153.871 66.9869L155.23 71.7416H155.232ZM144.157 62.5473C144.157 59.6541 142.36 57.6728 139.64 57.6728C136.92 57.6728 135.242 59.6541 135.242 62.5473C135.242 65.4405 137.001 67.4218 139.64 67.4218C142.279 67.4218 144.157 65.4405 144.157 62.5473Z" fill="white"/>
<path d="M177.414 59.9736V72.9708H170.777V60.8056C170.777 58.5869 169.298 57.715 167.78 57.715C166.14 57.715 164.461 58.8643 164.461 61.4801V72.9708H157.824V52.3657H164.259V54.4646C165.459 52.8006 167.697 51.8887 170.095 51.8887C174.014 51.8887 177.412 54.3448 177.412 59.9714L177.414 59.9736Z" fill="white"/>
<path d="M190 46.8967C190 49.1154 188.162 50.8593 185.803 50.8593C183.444 50.8593 181.604 49.1154 181.604 46.8967C181.604 44.678 183.444 42.9341 185.803 42.9341C188.162 42.9341 190 44.678 190 46.8967ZM182.484 52.3636H189.158V72.9686H182.484V52.3636Z" fill="white"/>
<path d="M83.7065 21.395L48.2739 1.13609C45.626 -0.377068 42.3647 -0.377068 39.7168 1.13609L4.28415 21.395C1.63398 22.9104 0 25.7148 0 28.7478V69.2524C0 72.2854 1.63398 75.0898 4.28415 76.6052L39.7168 96.8641C42.3647 98.3773 45.626 98.3773 48.2739 96.8641L83.7065 76.6052C86.3567 75.0898 87.9907 72.2854 87.9907 69.2524V28.7478C87.9907 25.7148 86.3567 22.9104 83.7065 21.395ZM10.7708 25.1025L39.7168 8.5532C42.3647 7.04005 45.626 7.04005 48.2739 8.5532L55.9849 12.9618L22.0855 32.5107L22.0005 32.7126L9.69865 25.8347C10.0344 25.5684 10.3903 25.3221 10.7708 25.1047V25.1025ZM27.5135 43.8594L41.7111 51.6248L41.6306 90.248C40.9703 90.0594 40.3279 89.7953 39.7168 89.447L10.7708 72.8955C8.12063 71.3801 6.48666 68.5757 6.48666 65.5427V32.4553C6.48666 32.4242 6.4889 32.3909 6.4889 32.3599L19.3525 39.3954M44.4598 45.2705L30.2375 37.3186L64.0183 17.5545L77.2199 25.1025C77.4907 25.2578 77.7459 25.4286 77.9943 25.6084L44.4576 45.2705H44.4598Z" fill="white"/>
<path d="M20.4225 51.4206L20.362 55.6939L33.5815 63.1176L33.4875 69.6495L20.268 62.2257L20.2053 66.5788L36.2541 75.5912L36.1601 82.123L12.8681 69.0438C11.6326 68.3493 10.876 67.0425 10.8962 65.6336L11.2655 39.697L36.1288 53.6593L36.0348 60.1912L20.4202 51.4229L20.4225 51.4206Z" fill="white"/>
<path d="M81.4727 32.3599L81.5197 41.461C81.5287 43.0651 80.6579 44.545 79.2456 45.3304L57.263 57.5355L57.5025 75.1697L72.0986 66.9805L71.9934 61.8464L64.589 66.0442L64.4323 60.3909L81.4839 50.6752L81.663 67.067C81.6898 69.6007 81.3966 70.9187 79.212 72.2033L47.3248 90.4232V51.7912L81.4749 32.3599H81.4727Z" fill="#15253F"/>
</g>
<defs>
<clipPath id="clip0_17_83">
<rect width="190" height="98" fill="white"/>
</clipPath>
</defs>
</svg>
