<svg width="23" height="22" viewBox="0 0 23 22" fill="none" xmlns="http://www.w3.org/2000/svg">
<path d="M10.5489 1.42705C10.8483 0.505741 12.1517 0.50574 12.4511 1.42705L14.3064 7.13729C14.4403 7.54931 14.8243 7.82827 15.2575 7.82827H21.2616C22.2303 7.82827 22.6331 9.06789 21.8494 9.63729L16.9919 13.1664C16.6415 13.4211 16.4948 13.8724 16.6287 14.2844L18.484 19.9947C18.7834 20.916 17.7289 21.6821 16.9452 21.1127L12.0878 17.5836C11.7373 17.3289 11.2627 17.3289 10.9122 17.5836L6.0548 21.1127C5.27108 21.6821 4.2166 20.916 4.51596 19.9947L6.37132 14.2844C6.5052 13.8724 6.35854 13.4211 6.00805 13.1664L1.15064 9.63729C0.366923 9.06789 0.769696 7.82827 1.73842 7.82827H7.74252C8.17574 7.82827 8.5597 7.54931 8.69357 7.13729L10.5489 1.42705Z" fill="white"/>
</svg>
