<svg width="207" height="181" viewBox="0 0 207 181" fill="none" xmlns="http://www.w3.org/2000/svg">
<path d="M181 0C165.92 15.0791 175.643 24.8062 160.564 39.8899C145.48 54.9736 135.757 45.2466 120.673 60.3303C105.589 75.414 115.316 85.1364 100.232 100.22C85.1477 115.304 75.425 105.577 60.341 120.661C45.2569 135.744 54.9841 145.471 39.8954 160.555C24.8113 175.639 15.0841 165.912 0 181L0 0L180.995 0L181 0Z" fill="#FDC514"/>
<path d="M199.864 84C205.225 84 208.662 78.2824 206.176 73.5108L194.371 50.846C193.143 48.4808 190.708 47 188.059 47C182.698 47 179.261 52.7176 181.747 57.4892L193.552 80.154C194.78 82.5192 197.215 84 199.864 84Z" fill="white"/>
<path d="M168.223 84C173.584 84 177.021 78.2824 174.535 73.5108L162.73 50.846C161.502 48.4808 159.067 47 156.418 47C151.057 47 147.62 52.7176 150.106 57.4892L161.911 80.154C163.139 82.5192 165.574 84 168.223 84Z" fill="white"/>
<path d="M136.582 84C141.943 84 145.38 78.2824 142.894 73.5108L131.089 50.846C129.861 48.4808 127.426 47 124.777 47C119.416 47 115.979 52.7176 118.465 57.4892L130.26 80.154C131.488 82.5192 133.922 84 136.572 84L136.582 84Z" fill="white"/>
<path d="M104.941 84C110.302 84 113.739 78.2824 111.253 73.5108L99.4477 50.846C98.2201 48.4808 95.7854 47 93.1359 47C87.7754 47 84.3382 52.7176 86.824 57.4892L98.6293 80.154C99.8569 82.5192 102.292 84 104.941 84Z" fill="white"/>
</svg>
