<svg width="46" height="133" viewBox="0 0 46 133" fill="none" xmlns="http://www.w3.org/2000/svg">
<path fill-rule="evenodd" clip-rule="evenodd" d="M45.1439 23.9379C43.97 25.1676 42.0287 25.206 40.8078 24.0235L23 6.7761L5.19221 24.0235C3.97135 25.206 2.03002 25.1676 0.85612 23.9379C-0.317781 22.7082 -0.279714 20.7527 0.941142 19.5703L19.8117 1.29351C21.5924 -0.431175 24.4076 -0.431167 26.1883 1.29351L45.0589 19.5703C46.2797 20.7527 46.3178 22.7082 45.1439 23.9379ZM45.1439 50.9664C43.97 52.1962 42.0287 52.2345 40.8078 51.0521L23 33.8046L5.19221 51.0521C3.97135 52.2345 2.03002 52.1962 0.856119 50.9664C-0.317782 49.7367 -0.279715 47.7812 0.941141 46.5988L19.8117 28.322C21.5924 26.5974 24.4076 26.5974 26.1883 28.322L45.0589 46.5988C46.2797 47.7812 46.3178 49.7367 45.1439 50.9664ZM40.8078 78.0806C42.0286 79.263 43.97 79.2247 45.1439 77.995C46.3178 76.7652 46.2797 74.8098 45.0589 73.6273L26.1883 55.3506C24.4076 53.6259 21.5924 53.6259 19.8117 55.3506L0.94114 73.6273C-0.279716 74.8098 -0.317783 76.7652 0.856118 77.995C2.03002 79.2247 3.97135 79.263 5.1922 78.0806L23 60.8332L40.8078 78.0806ZM45.1439 105.023C43.97 106.253 42.0286 106.292 40.8078 105.109L23 87.8617L5.1922 105.109C3.97135 106.292 2.03002 106.253 0.856116 105.023C-0.317784 103.794 -0.279717 101.838 0.941139 100.656L19.8117 82.3791C21.5924 80.6544 24.4076 80.6544 26.1883 82.3791L45.0589 100.656C46.2797 101.838 46.3178 103.794 45.1439 105.023ZM40.8078 132.138C42.0286 133.32 43.97 133.282 45.1439 132.052C46.3178 130.822 46.2797 128.867 45.0589 127.684L26.1883 109.408C24.4076 107.683 21.5924 107.683 19.8117 109.408L0.941137 127.684C-0.279718 128.867 -0.317785 130.822 0.856115 132.052C2.03002 133.282 3.97135 133.32 5.1922 132.138L23 114.89L40.8078 132.138Z" fill="white"/>
</svg>
