<svg width="54" height="235" viewBox="0 0 54 235" fill="none" xmlns="http://www.w3.org/2000/svg">
<path fill-rule="evenodd" clip-rule="evenodd" d="M4.5 9.03846C6.98528 9.03846 9 7.01513 9 4.51923C9 2.02333 6.98528 0 4.5 0C2.01472 0 0 2.02333 0 4.51923C0 7.01513 2.01472 9.03846 4.5 9.03846ZM4.5 54.2308C6.98528 54.2308 9 52.2074 9 49.7115C9 47.2156 6.98528 45.1923 4.5 45.1923C2.01472 45.1923 0 47.2156 0 49.7115C0 52.2074 2.01472 54.2308 4.5 54.2308ZM9 94.9038C9 97.3997 6.98528 99.4231 4.5 99.4231C2.01472 99.4231 0 97.3997 0 94.9038C0 92.4079 2.01472 90.3846 4.5 90.3846C6.98528 90.3846 9 92.4079 9 94.9038ZM4.5 144.615C6.98528 144.615 9 142.592 9 140.096C9 137.6 6.98528 135.577 4.5 135.577C2.01472 135.577 0 137.6 0 140.096C0 142.592 2.01472 144.615 4.5 144.615ZM9 185.288C9 187.784 6.98528 189.808 4.5 189.808C2.01472 189.808 0 187.784 0 185.288C0 182.793 2.01472 180.769 4.5 180.769C6.98528 180.769 9 182.793 9 185.288ZM4.5 235C6.98528 235 9 232.977 9 230.481C9 227.985 6.98528 225.962 4.5 225.962C2.01472 225.962 0 227.985 0 230.481C0 232.977 2.01472 235 4.5 235ZM54 4.51923C54 7.01513 51.9853 9.03846 49.5 9.03846C47.0147 9.03846 45 7.01513 45 4.51923C45 2.02333 47.0147 0 49.5 0C51.9853 0 54 2.02333 54 4.51923ZM49.5 54.2308C51.9853 54.2308 54 52.2074 54 49.7115C54 47.2156 51.9853 45.1923 49.5 45.1923C47.0147 45.1923 45 47.2156 45 49.7115C45 52.2074 47.0147 54.2308 49.5 54.2308ZM54 94.9038C54 97.3997 51.9853 99.4231 49.5 99.4231C47.0147 99.4231 45 97.3997 45 94.9038C45 92.4079 47.0147 90.3846 49.5 90.3846C51.9853 90.3846 54 92.4079 54 94.9038ZM49.5 144.615C51.9853 144.615 54 142.592 54 140.096C54 137.6 51.9853 135.577 49.5 135.577C47.0147 135.577 45 137.6 45 140.096C45 142.592 47.0147 144.615 49.5 144.615ZM54 185.288C54 187.784 51.9853 189.808 49.5 189.808C47.0147 189.808 45 187.784 45 185.288C45 182.793 47.0147 180.769 49.5 180.769C51.9853 180.769 54 182.793 54 185.288ZM49.5 235C51.9853 235 54 232.977 54 230.481C54 227.985 51.9853 225.962 49.5 225.962C47.0147 225.962 45 227.985 45 230.481C45 232.977 47.0147 235 49.5 235Z" fill="white"/>
</svg>
